<?xml version="1.0" encoding="UTF-8"?>
<!DOCTYPE svg PUBLIC "-//W3C//DTD SVG 1.1//EN" "http://www.w3.org/Graphics/SVG/1.1/DTD/svg11.dtd">
<svg xmlns="http://www.w3.org/2000/svg" version="1.1" width="16px" height="16px" style="shape-rendering:geometricPrecision; text-rendering:geometricPrecision; image-rendering:optimizeQuality; fill-rule:evenodd; clip-rule:evenodd" xmlns:xlink="http://www.w3.org/1999/xlink">
<g><path style="opacity:0.917" fill="#fe9250" d="M 3.5,2.5 C 4.83851,2.85699 5.37185,3.85699 5.2,5.2C 6.8,5.2 8.4,5.2 10,5.2C 8.31408,5.97458 6.44744,6.24124 4.4,6C 4.13333,6 3.86667,6 3.6,6C 3.6,4.93333 3.6,3.86667 3.6,2.8 Z"/></g>
<g><path style="opacity:1" fill="#feb974" d="M 3.6,6 C 3.86667,6 4.13333,6 4.4,6C 6.95817,6.95998 9.62483,6.95998 12.4,6C 14.4149,7.48726 14.4149,9.08726 12.4,10.8C 9.62483,9.84 6.95817,9.84 4.4,10.8C 4.13333,10.8 3.86667,10.8 3.6,10.8C 0.4,9.2 0.4,7.6 3.6,6 Z"/></g>
<g><path style="opacity:1" fill="#fea75a" d="M 10,2.8 C 10.8,3.86667 11.6,4.93333 12.4,6C 9.62483,6.95998 6.95817,6.95998 4.4,6C 6.44744,6.24124 8.31408,5.97458 10,5.2C 9.1,4.2782 9.1,3.4782 10,2.8 Z"/></g>
<g><path style="opacity:0.99" fill="#fea653" d="M 3.6,2.8 C 3.6,3.86667 3.6,4.93333 3.6,6C 0.4,7.6 0.4,9.2 3.6,10.8C 3.6,11.6 3.6,12.4 3.6,13.2C 2.07096,12.74 0.737626,11.94 -0.4,10.8C -0.4,9.2 -0.4,7.6 -0.4,6C 0.933333,4.93333 2.26667,3.86667 3.6,2.8 Z"/></g>
<g><path style="opacity:0.863" fill="#fe9250" d="M 3.6,10.8 C 3.86667,10.8 4.13333,10.8 4.4,10.8C 6.44744,10.5587 8.31408,10.8254 10,11.6C 8.11456,11.4694 6.24789,11.6027 4.4,12C 5.36952,12.8854 5.10285,13.2854 3.6,13.2C 3.6,12.4 3.6,11.6 3.6,10.8 Z"/></g>
<g><path style="opacity:0.996" fill="#fea455" d="M 4.4,10.8 C 6.95817,9.84 9.62483,9.84 12.4,10.8C 11.8667,11.6 11.3333,12.4 10.8,13.2C 9.04184,13.2729 8.77517,12.7396 10,11.6C 8.31408,10.8254 6.44744,10.5587 4.4,10.8 Z"/></g>
<g><path style="opacity:0.271" fill="#fe8850" d="M 10,2.8 C 12.0747,3.80284 13.9414,5.13617 15.6,6.8C 15.6,7.86667 15.6,8.93333 15.6,10C 14.2033,11.4013 12.6033,12.4679 10.8,13.2C 11.3333,12.4 11.8667,11.6 12.4,10.8C 14.4149,9.08726 14.4149,7.48726 12.4,6C 11.6,4.93333 10.8,3.86667 10,2.8 Z"/></g>
</svg>
