<?xml version="1.0" encoding="UTF-8"?>
<!DOCTYPE svg PUBLIC "-//W3C//DTD SVG 1.1//EN" "http://www.w3.org/Graphics/SVG/1.1/DTD/svg11.dtd">
<svg xmlns="http://www.w3.org/2000/svg" version="1.1" width="16" height="16" viewBox="0 0 50 50" style="shape-rendering:geometricPrecision; text-rendering:geometricPrecision; image-rendering:optimizeQuality; fill-rule:evenodd; clip-rule:evenodd" xmlns:xlink="http://www.w3.org/1999/xlink">
<g><path style="opacity:0.775" fill="#deb5c9" d="M 15.5,-0.5 C 17.5,-0.5 19.5,-0.5 21.5,-0.5C 22.8333,3.5 24.1667,3.5 25.5,-0.5C 27.5,-0.5 29.5,-0.5 31.5,-0.5C 34.64,4.19372 33.9734,8.19372 29.5,11.5C 29.1583,10.6618 28.4916,10.3284 27.5,10.5C 26.307,8.94586 25.1404,7.27919 24,5.5C 23.214,8.58273 21.3807,10.7494 18.5,12C 19.4158,12.2784 20.0825,12.7784 20.5,13.5C 19.596,14.209 19.2627,15.209 19.5,16.5C 18.596,15.791 18.2627,14.791 18.5,13.5C 14.774,13.1774 11.1073,13.5108 7.5,14.5C 3.15146,25.4484 5.81813,34.1151 15.5,40.5C 14.8333,40.5 14.5,40.8333 14.5,41.5C 7.03867,37.9198 3.70533,31.9198 4.5,23.5C 4.36695,19.6703 5.03361,16.0037 6.5,12.5C 9.77756,11.9794 13.1109,11.8127 16.5,12C 15.9571,9.56139 14.9571,7.06139 13.5,4.5C 13.4365,2.48607 14.1032,0.819406 15.5,-0.5 Z"/></g>
<g><path style="opacity:1" fill="#e8c7d9" d="M 27.5,0.5 C 33.1111,1.92779 33.9444,4.92779 30,9.5C 25.259,7.53329 24.4256,4.53329 27.5,0.5 Z"/></g>
<g><path style="opacity:1" fill="#e8c7d9" d="M 16.5,0.5 C 20.9757,0.822224 22.4757,3.15556 21,7.5C 20.6924,8.30806 20.1924,8.97473 19.5,9.5C 17.3287,8.09097 15.662,6.25764 14.5,4C 14.9783,2.69736 15.645,1.53069 16.5,0.5 Z"/></g>
<g><path style="opacity:1" fill="#e8c7d9" d="M 19.5,16.5 C 21.693,20.0433 24.3596,20.3766 27.5,17.5C 28.2458,16.2638 28.5792,14.9305 28.5,13.5C 32.4367,13.2065 36.27,13.5399 40,14.5C 44.483,30.2237 38.8164,39.557 23,42.5C 20.3351,42.332 17.8351,41.6653 15.5,40.5C 5.81813,34.1151 3.15146,25.4484 7.5,14.5C 11.1073,13.5108 14.774,13.1774 18.5,13.5C 18.2627,14.791 18.596,15.791 19.5,16.5 Z"/></g>
<g><path style="opacity:0.473" fill="#ddb3c7" d="M 27.5,10.5 C 28.4916,10.3284 29.1583,10.6618 29.5,11.5C 32.6678,12.1238 36.5011,12.4571 41,12.5C 43.2808,20.3273 42.9475,27.9939 40,35.5C 32.8835,43.7015 24.3835,45.7015 14.5,41.5C 14.5,40.8333 14.8333,40.5 15.5,40.5C 17.8351,41.6653 20.3351,42.332 23,42.5C 38.8164,39.557 44.483,30.2237 40,14.5C 36.27,13.5399 32.4367,13.2065 28.5,13.5C 28.5792,14.9305 28.2458,16.2638 27.5,17.5C 24.3596,20.3766 21.693,20.0433 19.5,16.5C 19.2627,15.209 19.596,14.209 20.5,13.5C 20.2771,16.1142 21.4438,17.7809 24,18.5C 25.8916,16.1133 27.0583,13.4466 27.5,10.5 Z"/></g>
</svg>
