<?xml version="1.0" encoding="UTF-8" standalone="no"?>
<svg
   version="1.1"
   width="1024"
   height="1024"
   style="clip-rule:evenodd;fill-rule:evenodd;image-rendering:optimizeQuality;shape-rendering:geometricPrecision;text-rendering:geometricPrecision"
   id="svg17"
   sodipodi:docname="Create an angular icon of a LEGO 2x2 brick with black outlines.svg"
   xmlns:inkscape="http://www.inkscape.org/namespaces/inkscape"
   xmlns:sodipodi="http://sodipodi.sourceforge.net/DTD/sodipodi-0.dtd"
   xmlns="http://www.w3.org/2000/svg"
   xmlns:svg="http://www.w3.org/2000/svg">
  <defs
     id="defs17" />
  <sodipodi:namedview
     id="namedview17"
     pagecolor="#ffffff"
     bordercolor="#000000"
     borderopacity="0.25"
     inkscape:showpageshadow="2"
     inkscape:pageopacity="0.0"
     inkscape:pagecheckerboard="0"
     inkscape:deskcolor="#d1d1d1">
    <inkscape:page
       x="0"
       y="0"
       width="1024"
       height="1024"
       id="page2"
       margin="0"
       bleed="0" />
  </sodipodi:namedview>
  <g
     id="g1">
    <path
       style="opacity:1;fill:#727272;fill-opacity:0"
       fill="#fdfdfd"
       d="m -0.5,-0.5 c 341.333,0 682.667,0 1024,0 0,341.333 0,682.667 0,1024 -341.333,0 -682.667,0 -1024,0 0,-341.333 0,-682.667 0,-1024 z"
       id="path1" />
  </g>
  <g
     id="g2">
    <path
       style="opacity:1"
       fill="#0b0b0b"
       d="m 507.5,139.5 c 4.292,-0.465 8.292,0.368 12,2.5 123.501,74.918 247.167,149.585 371,224 2.933,2.264 5.1,5.098 6.5,8.5 0.667,87.667 0.667,175.333 0,263 -0.667,1.333 -1.333,2.667 -2,4 -123.414,82.957 -246.914,165.791 -370.5,248.5 -4.091,2.712 -8.424,4.879 -13,6.5 -1.697,-0.399 -3.363,-0.899 -5,-1.5 -124.484,-84.078 -249.484,-167.411 -375,-250 -2.75,-2.67 -4.583,-5.836 -5.5,-9.5 -0.667,-86.667 -0.667,-173.333 0,-260 0.471,-1.746 1.138,-3.413 2,-5 4.391,-4.112 9.224,-7.612 14.5,-10.5 122.063,-73.023 243.729,-146.523 365,-220.5 z"
       id="path2" />
  </g>
  <g
     id="g3">
    <path
       style="opacity:1;fill:#ffffff;fill-opacity:0.997283"
       fill="#fcfcfc"
       d="m 510.5,170.5 c 1.808,-0.009 3.475,0.491 5,1.5 113.465,68.635 226.798,137.468 340,206.5 C 740.599,450.574 626.099,523.241 512,596.5 397.758,522.959 282.925,450.292 167.5,378.5 c 114.373,-69.395 228.706,-138.729 343,-208 z"
       id="path3" />
  </g>
  <g
     id="g4">
    <path
       style="opacity:1"
       fill="#0b0b0b"
       d="m 499.5,202.5 c 25.909,-1.991 49.576,4.176 71,18.5 8.174,6.163 14.007,13.996 17.5,23.5 1.618,19.948 1.951,39.948 1,60 -2.737,13.742 -9.904,24.575 -21.5,32.5 -28.578,17.53 -58.911,21.197 -91,11 -13.801,-5.317 -25.635,-13.484 -35.5,-24.5 -2.527,-3.721 -4.527,-7.721 -6,-12 -1.622,-21.616 -1.955,-43.283 -1,-65 4.096,-12.768 11.93,-22.601 23.5,-29.5 13.174,-7.616 27.174,-12.449 42,-14.5 z"
       id="path4" />
  </g>
  <g
     id="g5">
    <path
       style="opacity:1"
       fill="#fcfcfc"
       d="m 504.5,229.5 c 16.827,-0.71 32.493,3.124 47,11.5 12.959,9.98 13.292,20.313 1,31 -26.224,15.746 -52.891,16.413 -80,2 -14.499,-9.61 -15.499,-20.277 -3,-32 10.811,-6.879 22.477,-11.046 35,-12.5 z"
       id="path5" />
  </g>
  <g
     id="g6">
    <path
       style="opacity:1"
       fill="#fafafa"
       d="m 460.5,297.5 c 22.518,12.433 46.518,16.266 72,11.5 10.685,-1.763 20.518,-5.597 29.5,-11.5 -0.052,3.527 -1.052,6.86 -3,10 -13.044,13.075 -28.877,19.408 -47.5,19 -18.433,0.582 -34.266,-5.418 -47.5,-18 -2.076,-3.393 -3.242,-7.06 -3.5,-11 z"
       id="path6" />
  </g>
  <g
     id="g7">
    <path
       style="opacity:1"
       fill="#0b0b0b"
       d="m 331.5,307.5 c 26.16,-1.381 49.827,5.453 71,20.5 7.585,6.249 12.752,14.082 15.5,23.5 0.667,19.667 0.667,39.333 0,59 -3.493,15.134 -11.993,26.634 -25.5,34.5 -27.091,14.413 -55.424,17.413 -85,9 -20.143,-6.156 -34.643,-18.656 -43.5,-37.5 -0.794,-2.971 -1.461,-5.971 -2,-9 -12.966,-59.194 10.201,-92.527 69.5,-100 z"
       id="path7" />
  </g>
  <g
     id="g8">
    <path
       style="opacity:1"
       fill="#0b0c0b"
       d="m 672.5,307.5 c 22.74,-1.219 44.074,3.614 64,14.5 12.778,7.434 20.945,18.267 24.5,32.5 0.667,18.667 0.667,37.333 0,56 -3.493,15.134 -11.993,26.634 -25.5,34.5 -21.155,11.981 -43.822,16.314 -68,13 -21.114,-2.973 -38.948,-12.139 -53.5,-27.5 -4.338,-5.676 -7.338,-12.01 -9,-19 -15.708,-60.371 6.792,-95.038 67.5,-104 z"
       id="path8" />
  </g>
  <g
     id="g9">
    <path
       style="opacity:1"
       fill="#fcfcfc"
       d="m 327.5,335.5 c 18.343,-2.11 35.676,1.056 52,9.5 14.763,9.432 15.763,20.099 3,32 -18.949,11.214 -39.282,14.547 -61,10 -10.533,-2.349 -19.699,-7.182 -27.5,-14.5 -4.35,-5.128 -5.35,-10.794 -3,-17 5.869,-8.187 13.702,-13.687 23.5,-16.5 4.474,-1.12 8.807,-2.286 13,-3.5 z"
       id="path9" />
  </g>
  <g
     id="g10">
    <path
       style="opacity:1"
       fill="#fcfcfc"
       d="m 669.5,335.5 c 18.694,-2.218 36.36,0.948 53,9.5 16.123,12.449 15.456,24.116 -2,35 -16.459,8.023 -33.792,10.689 -52,8 -12.487,-1.828 -23.32,-6.995 -32.5,-15.5 -6.888,-9.836 -5.388,-18.336 4.5,-25.5 9.097,-5.527 18.763,-9.36 29,-11.5 z"
       id="path10" />
  </g>
  <g
     id="g11">
    <path
       style="opacity:1"
       fill="#fafafa"
       d="m 289.5,402.5 c 28.911,15.939 58.911,18.106 90,6.5 4.077,-1.787 7.91,-3.954 11.5,-6.5 0.314,5.047 -1.352,9.38 -5,13 -17.095,13.628 -36.595,18.795 -58.5,15.5 -13.505,-2.046 -25.005,-7.88 -34.5,-17.5 -2.076,-3.393 -3.242,-7.06 -3.5,-11 z"
       id="path11" />
  </g>
  <g
     id="g12">
    <path
       style="opacity:1"
       fill="#fafafa"
       d="m 631.5,402.5 c 34.182,18.613 68.348,18.613 102.5,0 0.208,3.613 -0.792,6.946 -3,10 -13.49,13.39 -29.823,19.723 -49,19 -13.859,0.327 -26.693,-3.173 -38.5,-10.5 -6.906,-4.319 -10.906,-10.485 -12,-18.5 z"
       id="path12" />
  </g>
  <g
     id="g13">
    <path
       style="opacity:1;fill:#ffffff;fill-opacity:1"
       fill="#fdfdfd"
       d="m 152.5,403.5 c 115.732,70.896 230.565,143.23 344.5,217 0.667,78.333 0.667,156.667 0,235 -114.122,-77.451 -228.789,-154.118 -344,-230 -0.5,-73.999 -0.667,-147.999 -0.5,-222 z"
       id="path13" />
  </g>
  <g
     id="g14">
    <path
       style="opacity:1;fill:#ffffff;fill-opacity:1"
       fill="#fdfdfd"
       d="m 868.5,403.5 c 1.333,36.661 2,73.661 2,111 -0.167,37 -0.333,74 -0.5,111 -114.758,76.295 -229.258,152.961 -343.5,230 -1.167,-78.331 -1.333,-156.665 -0.5,-235 113.806,-72.987 227.973,-145.32 342.5,-217 z"
       id="path14" />
  </g>
  <g
     id="g15">
    <path
       style="opacity:1;fill:#0b0b0b;fill-opacity:1"
       fill="#0b0b0b"
       d="m 494.5,412.5 c 28.134,-3.556 53.801,2.611 77,18.5 8.747,7.331 14.58,16.497 17.5,27.5 0.937,19.71 0.604,39.377 -1,59 -6.383,18.051 -18.55,30.551 -36.5,37.5 -27.835,10.315 -55.502,9.981 -83,-1 -14.444,-6.778 -25.278,-17.278 -32.5,-31.5 -0.92,-2.601 -1.587,-5.268 -2,-8 -14.701,-55.693 5.466,-89.693 60.5,-102 z"
       id="path15" />
  </g>
  <g
     id="g16">
    <path
       style="opacity:1;fill:#65ffff;fill-opacity:1"
       fill="#fcfcfc"
       d="m 500.5,439.5 c 17.282,-1.509 33.616,1.657 49,9.5 14.77,9.477 15.77,20.143 3,32 -16.56,10.179 -34.56,13.846 -54,11 -13.77,-1.468 -25.27,-7.301 -34.5,-17.5 -3.916,-5.196 -4.249,-10.529 -1,-16 10.184,-11 22.684,-17.333 37.5,-19 z"
       id="path16" />
  </g>
  <g
     id="g17">
    <path
       style="opacity:1;fill:#ffffff;fill-opacity:1"
       fill="#fafafa"
       d="m 460.5,506.5 c 33.824,18.585 67.658,18.585 101.5,0 0.036,3.565 -0.964,6.898 -3,10 -13.481,13.388 -29.814,19.721 -49,19 -17.85,0.275 -33.183,-5.725 -46,-18 -2.076,-3.393 -3.242,-7.06 -3.5,-11 z"
       id="path17" />
  </g>
</svg>
